<?xml version="1.0" standalone="no"?>
<!DOCTYPE svg PUBLIC "-//W3C//DTD SVG 20010904//EN"
 "http://www.w3.org/TR/2001/REC-SVG-20010904/DTD/svg10.dtd">
<svg version="1.0" xmlns="http://www.w3.org/2000/svg"
 width="221.000000pt" height="158.000000pt" viewBox="0 0 221.000000 158.000000"
 preserveAspectRatio="xMidYMid meet">

<g transform="translate(0.000000,158.000000) scale(0.100000,-0.100000)"
fill="#000000" stroke="none">
<path d="M0 790 l0 -790 1105 0 1105 0 0 790 0 790 -539 0 -540 0 16 -37 c9
-21 31 -92 49 -157 19 -66 35 -121 37 -122 1 -2 142 41 312 96 170 54 311 97
312 96 2 -2 -43 -41 -99 -88 -97 -80 -256 -221 -411 -364 l-68 -63 35 -148
c66 -283 89 -447 67 -481 -6 -10 -15 -9 -44 8 -20 12 -38 29 -41 38 -3 9 -26
127 -52 262 -26 135 -48 246 -49 248 -2 2 -41 -24 -88 -57 -90 -63 -357 -224
-362 -219 -2 2 60 60 138 130 78 70 175 158 216 196 l75 68 -13 74 c-6 41 -13
76 -15 77 -2 2 -34 -4 -72 -12 -148 -34 -134 -24 -192 -134 l-52 -99 47 -41
48 -42 -53 26 c-30 15 -57 24 -60 20 -3 -3 -48 -83 -99 -178 -51 -95 -93 -169
-93 -165 0 4 34 86 75 182 41 96 75 180 75 185 0 13 -155 80 -394 171 -16 6
-27 12 -25 15 3 2 74 15 159 30 85 14 213 37 283 52 l129 26 99 199 c54 109
99 200 99 203 0 3 -252 5 -560 5 l-560 0 0 -790z m483 -647 c-7 -2 -19 -2 -25
0 -7 3 -2 5 12 5 14 0 19 -2 13 -5z m320 0 c-7 -2 -19 -2 -25 0 -7 3 -2 5 12
5 14 0 19 -2 13 -5z m360 0 c-7 -2 -19 -2 -25 0 -7 3 -2 5 12 5 14 0 19 -2 13
-5z m-489 -19 c5 -14 4 -15 -9 -4 -17 14 -19 20 -6 20 5 0 12 -7 15 -16z m23
-66 c-2 -18 -4 -6 -4 27 0 33 2 48 4 33 2 -15 2 -42 0 -60z m53 78 c0 -2 -8
-10 -17 -17 -16 -13 -17 -12 -4 4 13 16 21 21 21 13z m119 -50 c-1 -20 -2 -20
-6 -1 -3 11 -12 29 -22 40 -16 20 -16 20 7 1 12 -11 21 -29 21 -40z m66 12
l40 -43 -42 39 -42 39 -4 -54 -3 -54 -2 58 c-1 31 2 57 6 57 4 0 26 -19 47
-42z m62 -40 c-2 -18 -4 -6 -4 27 0 33 2 48 4 33 2 -15 2 -42 0 -60z m106 64
c-10 -10 -20 -17 -22 -16 -6 5 20 34 30 34 5 0 1 -8 -8 -18z m150 -36 c3 -30
1 -43 -4 -35 -8 13 -13 97 -5 88 2 -2 6 -26 9 -53z m-35 -30 c-7 -6 -10 -7 -5
-2 4 6 8 21 8 36 2 25 2 25 6 1 3 -13 -1 -29 -9 -35z m-808 -1 c14 -19 14 -19
-2 -6 -10 7 -18 18 -18 24 0 6 1 8 3 6 1 -2 9 -13 17 -24z m115 -5 c-10 -11
-25 -20 -34 -19 -10 0 -8 4 7 9 12 5 25 17 28 25 4 9 9 13 12 10 3 -2 -3 -14
-13 -25z m139 -6 c3 -8 2 -12 -4 -9 -6 3 -10 10 -10 16 0 14 7 11 14 -7z m686
1 c-7 -8 -17 -15 -23 -15 -6 0 -2 7 9 15 25 19 30 19 14 0z m-225 -13 c-3 -3
-11 0 -18 7 -9 10 -8 11 6 5 10 -3 15 -9 12 -12z m438 1 c-13 -2 -33 -2 -45 0
-13 2 -3 4 22 4 25 0 35 -2 23 -4z m115 0 c-16 -2 -40 -2 -55 0 -16 2 -3 4 27
4 30 0 43 -2 28 -4z"/>
<path d="M1040 1294 c-28 -53 -50 -97 -48 -99 2 -2 34 5 71 16 59 19 66 24 62
42 -2 12 -9 48 -15 80 -6 31 -13 57 -15 57 -2 0 -27 -43 -55 -96z"/>
<path d="M1355 1212 c-55 -25 -101 -47 -103 -48 -6 -3 11 -84 18 -84 4 0 50
40 101 90 52 49 92 89 89 89 -3 0 -50 -21 -105 -47z"/>
<path d="M767 1054 c-54 -12 -101 -24 -103 -27 -5 -5 118 -97 130 -97 6 0 79
141 74 144 -2 1 -47 -8 -101 -20z"/>
</g>
</svg>
